<?xml version="1.0" standalone="no"?>
<svg xmlns:xlink="http://www.w3.org/1999/xlink" id="wave" style="transform:rotate(0deg); transition: 0.3s" viewBox="0 0 1440 240" version="1.1" xmlns="http://www.w3.org/2000/svg" preserveAspectRatio="none"><defs><linearGradient id="sw-gradient-0" x1="0" x2="0" y1="1" y2="0"><stop stop-color="rgba(182, 105, 151, 1)" offset="0%"/><stop stop-color="rgba(255, 255, 255, 1)" offset="100%"/></linearGradient></defs><path style="transform:translate(0, 0px); opacity:1" fill="url(#sw-gradient-0)" d="M0,168L60,172C120,176,240,184,360,176C480,168,600,144,720,140C840,136,960,152,1080,152C1200,152,1320,136,1440,120C1560,104,1680,88,1800,68C1920,48,2040,24,2160,12C2280,0,2400,0,2520,20C2640,40,2760,80,2880,96C3000,112,3120,104,3240,84C3360,64,3480,32,3600,28C3720,24,3840,48,3960,72C4080,96,4200,120,4320,120C4440,120,4560,96,4680,76C4800,56,4920,40,5040,52C5160,64,5280,104,5400,132C5520,160,5640,176,5760,176C5880,176,6000,160,6120,156C6240,152,6360,160,6480,152C6600,144,6720,120,6840,100C6960,80,7080,64,7200,56C7320,48,7440,48,7560,44C7680,40,7800,32,7920,28C8040,24,8160,24,8280,32C8400,40,8520,56,8580,64L8640,72L8640,240L8580,240C8520,240,8400,240,8280,240C8160,240,8040,240,7920,240C7800,240,7680,240,7560,240C7440,240,7320,240,7200,240C7080,240,6960,240,6840,240C6720,240,6600,240,6480,240C6360,240,6240,240,6120,240C6000,240,5880,240,5760,240C5640,240,5520,240,5400,240C5280,240,5160,240,5040,240C4920,240,4800,240,4680,240C4560,240,4440,240,4320,240C4200,240,4080,240,3960,240C3840,240,3720,240,3600,240C3480,240,3360,240,3240,240C3120,240,3000,240,2880,240C2760,240,2640,240,2520,240C2400,240,2280,240,2160,240C2040,240,1920,240,1800,240C1680,240,1560,240,1440,240C1320,240,1200,240,1080,240C960,240,840,240,720,240C600,240,480,240,360,240C240,240,120,240,60,240L0,240Z"/></svg>